<svg width="378" height="72" viewBox="0 0 378 72" fill="none" xmlns="http://www.w3.org/2000/svg">
<g clip-path="url(#clip0_140_10)">
<path d="M25.7109 66.7827H14.5391V21.978H-2.29688V10.7671H42.5078V21.978H25.7109V66.7827ZM127.672 66.7827H115.68L94.0781 29.9077V66.7827H82.8672V10.7671H94.8594L116.461 47.6812V10.7671H127.672V66.7827ZM163.297 66.7827H152.125V49.2437C149.651 48.6187 147.372 47.616 145.289 46.2358C143.232 44.8556 141.461 43.215 139.977 41.314C138.492 39.3869 137.333 37.2645 136.5 34.9468C135.693 32.603 135.289 30.1421 135.289 27.564V10.7671H146.5V27.564C146.5 29.1004 146.786 30.5588 147.359 31.939C147.958 33.2931 148.766 34.478 149.781 35.4937C150.797 36.5093 151.982 37.3166 153.336 37.9155C154.716 38.4884 156.174 38.7749 157.711 38.7749C159.247 38.7749 160.693 38.4884 162.047 37.9155C163.427 37.3166 164.625 36.5093 165.641 35.4937C166.656 34.478 167.451 33.2931 168.023 31.939C168.622 30.5588 168.922 29.1004 168.922 27.564V10.7671H180.094V27.564C180.094 30.1421 179.677 32.603 178.844 34.9468C178.036 37.2645 176.891 39.3869 175.406 41.314C173.922 43.215 172.151 44.8556 170.094 46.2358C168.036 47.616 165.771 48.6187 163.297 49.2437V66.7827ZM226.681 56.2725H221.444V66.7827H210.934V56.2725H184.676L190.536 14.2681H201.046L196.468 45.7988H210.934V19.5415H221.444V45.7988H226.681V56.2725ZM246.236 66.7827H235.025V10.7671H274.244V21.978H246.236V33.189H263.033V44.3999H246.236V66.7827ZM280.744 27.564C280.744 25.2463 281.187 23.0718 282.072 21.0405C282.958 19.0093 284.156 17.2384 285.666 15.728C287.202 14.1916 288.986 12.9806 291.018 12.0952C293.049 11.2098 295.223 10.7671 297.541 10.7671H323.244V21.978H297.541C296.76 21.978 296.031 22.1213 295.354 22.4077C294.676 22.6942 294.077 23.0978 293.557 23.6187C293.062 24.1134 292.671 24.6994 292.385 25.3765C292.098 26.0535 291.955 26.7827 291.955 27.564C291.955 28.3452 292.098 29.0874 292.385 29.7905C292.671 30.4676 293.062 31.0666 293.557 31.5874C294.077 32.0822 294.676 32.4728 295.354 32.7593C296.031 33.0457 296.76 33.189 297.541 33.189H308.752C311.07 33.189 313.244 33.6317 315.275 34.5171C317.333 35.3765 319.117 36.5744 320.627 38.1108C322.163 39.6213 323.361 41.4051 324.221 43.4624C325.106 45.4937 325.549 47.6681 325.549 49.9858C325.549 52.3035 325.106 54.478 324.221 56.5093C323.361 58.5405 322.163 60.3244 320.627 61.8608C319.117 63.3713 317.333 64.5692 315.275 65.4546C313.244 66.34 311.07 66.7827 308.752 66.7827H283.869V55.5718H308.752C309.533 55.5718 310.262 55.4285 310.939 55.1421C311.617 54.8556 312.202 54.465 312.697 53.9702C313.218 53.4494 313.622 52.8504 313.908 52.1733C314.195 51.4963 314.338 50.7671 314.338 49.9858C314.338 49.2046 314.195 48.4754 313.908 47.7983C313.622 47.1213 313.218 46.5353 312.697 46.0405C312.202 45.5197 311.617 45.116 310.939 44.8296C310.262 44.5431 309.533 44.3999 308.752 44.3999H297.541C295.223 44.3999 293.049 43.9572 291.018 43.0718C288.986 42.1864 287.202 40.9884 285.666 39.478C284.156 37.9416 282.958 36.1577 282.072 34.1265C281.187 32.0692 280.744 29.8817 280.744 27.564ZM344.143 66.7827H332.932V10.7671H344.143V38.7749L365.002 10.7671H377.736L360.041 34.3999L377.736 66.7827H365.002L352.697 44.1265L344.143 55.5718V66.7827Z" fill="black"/>
<path d="M25.7109 66.7827V67.7827H26.7109V66.7827H25.7109ZM14.5391 66.7827H13.5391V67.7827H14.5391V66.7827ZM14.5391 21.978H15.5391V20.978H14.5391V21.978ZM-2.29688 21.978H-3.29688V22.978H-2.29688V21.978ZM-2.29688 10.7671V9.76709H-3.29688V10.7671H-2.29688ZM42.5078 10.7671H43.5078V9.76709H42.5078V10.7671ZM42.5078 21.978V22.978H43.5078V21.978H42.5078ZM25.7109 21.978V20.978H24.7109V21.978H25.7109ZM25.7109 66.7827V65.7827H14.5391V66.7827V67.7827H25.7109V66.7827ZM14.5391 66.7827H15.5391V21.978H14.5391H13.5391V66.7827H14.5391ZM14.5391 21.978V20.978H-2.29688V21.978V22.978H14.5391V21.978ZM-2.29688 21.978H-1.29688V10.7671H-2.29688H-3.29688V21.978H-2.29688ZM-2.29688 10.7671V11.7671H42.5078V10.7671V9.76709H-2.29688V10.7671ZM42.5078 10.7671H41.5078V21.978H42.5078H43.5078V10.7671H42.5078ZM42.5078 21.978V20.978H25.7109V21.978V22.978H42.5078V21.978ZM25.7109 21.978H24.7109V66.7827H25.7109H26.7109V21.978H25.7109ZM127.672 66.7827V67.7827H128.672V66.7827H127.672ZM115.68 66.7827L114.817 67.2882L115.107 67.7827H115.68V66.7827ZM94.0781 29.9077L94.941 29.4023L93.0781 26.2223V29.9077H94.0781ZM94.0781 66.7827V67.7827H95.0781V66.7827H94.0781ZM82.8672 66.7827H81.8672V67.7827H82.8672V66.7827ZM82.8672 10.7671V9.76709H81.8672V10.7671H82.8672ZM94.8594 10.7671L95.7225 10.262L95.4328 9.76709H94.8594V10.7671ZM116.461 47.6812L115.598 48.1862L117.461 51.37V47.6812H116.461ZM116.461 10.7671V9.76709H115.461V10.7671H116.461ZM127.672 10.7671H128.672V9.76709H127.672V10.7671ZM127.672 66.7827V65.7827H115.68V66.7827V67.7827H127.672V66.7827ZM115.68 66.7827L116.543 66.2773L94.941 29.4023L94.0781 29.9077L93.2153 30.4132L114.817 67.2882L115.68 66.7827ZM94.0781 29.9077H93.0781V66.7827H94.0781H95.0781V29.9077H94.0781ZM94.0781 66.7827V65.7827H82.8672V66.7827V67.7827H94.0781V66.7827ZM82.8672 66.7827H83.8672V10.7671H82.8672H81.8672V66.7827H82.8672ZM82.8672 10.7671V11.7671H94.8594V10.7671V9.76709H82.8672V10.7671ZM94.8594 10.7671L93.9963 11.2722L115.598 48.1862L116.461 47.6812L117.324 47.1761L95.7225 10.262L94.8594 10.7671ZM116.461 47.6812H117.461V10.7671H116.461H115.461V47.6812H116.461ZM116.461 10.7671V11.7671H127.672V10.7671V9.76709H116.461V10.7671ZM127.672 10.7671H126.672V66.7827H127.672H128.672V10.7671H127.672ZM163.297 66.7827V67.7827H164.297V66.7827H163.297ZM152.125 66.7827H151.125V67.7827H152.125V66.7827ZM152.125 49.2437H153.125V48.4649L152.37 48.2741L152.125 49.2437ZM145.289 46.2358L144.732 47.0663L144.737 47.0695L145.289 46.2358ZM139.977 41.314L139.184 41.9242L139.188 41.9294L139.977 41.314ZM136.5 34.9468L135.554 35.2725L135.559 35.2851L136.5 34.9468ZM135.289 10.7671V9.76709H134.289V10.7671H135.289ZM146.5 10.7671H147.5V9.76709H146.5V10.7671ZM147.359 31.939L146.436 32.3223L146.44 32.333L146.445 32.3435L147.359 31.939ZM153.336 37.9155L152.931 38.8301L152.942 38.8347L152.953 38.8391L153.336 37.9155ZM162.047 37.9155L162.437 38.8365L162.445 38.8329L162.047 37.9155ZM168.023 31.939L167.106 31.5409L167.102 31.5493L168.023 31.939ZM168.922 10.7671V9.76709H167.922V10.7671H168.922ZM180.094 10.7671H181.094V9.76709H180.094V10.7671ZM178.844 34.9468L177.902 34.6118L177.899 34.6178L178.844 34.9468ZM175.406 41.314L176.194 41.9294L176.198 41.9242L175.406 41.314ZM170.094 46.2358L170.651 47.0663L170.094 46.2358ZM163.297 49.2437L163.052 48.2741L162.297 48.4649V49.2437H163.297ZM163.297 66.7827V65.7827H152.125V66.7827V67.7827H163.297V66.7827ZM152.125 66.7827H153.125V49.2437H152.125H151.125V66.7827H152.125ZM152.125 49.2437L152.37 48.2741C150.003 47.6762 147.829 46.7188 145.841 45.4022L145.289 46.2358L144.737 47.0695C146.916 48.5133 149.299 49.5611 151.88 50.2132L152.125 49.2437ZM145.289 46.2358L145.846 45.4054C143.874 44.0826 142.182 42.5139 140.765 40.6985L139.977 41.314L139.188 41.9294C140.74 43.9161 142.589 45.6287 144.732 47.0663L145.289 46.2358ZM139.977 41.314L140.769 40.7037C139.349 38.86 138.24 36.8296 137.441 34.6084L136.5 34.9468L135.559 35.2851C136.427 37.6994 137.636 39.9137 139.184 41.9242L139.977 41.314ZM136.5 34.9468L137.445 34.6211C136.676 32.3863 136.289 30.0357 136.289 27.564H135.289H134.289C134.289 30.2484 134.71 32.8198 135.555 35.2724L136.5 34.9468ZM135.289 27.564H136.289V10.7671H135.289H134.289V27.564H135.289ZM135.289 10.7671V11.7671H146.5V10.7671V9.76709H135.289V10.7671ZM146.5 10.7671H145.5V27.564H146.5H147.5V10.7671H146.5ZM146.5 27.564H145.5C145.5 29.2282 145.811 30.8172 146.436 32.3223L147.359 31.939L148.283 31.5556C147.762 30.3004 147.5 28.9726 147.5 27.564H146.5ZM147.359 31.939L146.445 32.3435C147.092 33.8069 147.969 35.0952 149.074 36.2008L149.781 35.4937L150.488 34.7865C149.563 33.8608 148.825 32.7794 148.274 31.5345L147.359 31.939ZM149.781 35.4937L149.074 36.2008C150.18 37.3063 151.468 38.1828 152.931 38.8301L153.336 37.9155L153.74 37.001C152.496 36.4504 151.414 35.7123 150.488 34.7865L149.781 35.4937ZM153.336 37.9155L152.953 38.8391C154.458 39.4639 156.047 39.7749 157.711 39.7749V38.7749V37.7749C156.302 37.7749 154.975 37.513 153.719 36.9919L153.336 37.9155ZM157.711 38.7749V39.7749C159.375 39.7749 160.954 39.4639 162.437 38.8365L162.047 37.9155L161.657 36.9946C160.432 37.513 159.12 37.7749 157.711 37.7749V38.7749ZM162.047 37.9155L162.445 38.8329C163.935 38.1863 165.239 37.3094 166.348 36.2008L165.641 35.4937L164.934 34.7865C164.011 35.7091 162.919 36.4468 161.649 36.9982L162.047 37.9155ZM165.641 35.4937L166.348 36.2008C167.457 35.0919 168.323 33.7985 168.944 32.3286L168.023 31.939L167.102 31.5493C166.579 32.7878 165.856 33.8642 164.934 34.7865L165.641 35.4937ZM168.023 31.939L168.941 32.3371C169.595 30.8285 169.922 29.2344 169.922 27.564H168.922H167.922C167.922 28.9664 167.649 30.289 167.106 31.5409L168.023 31.939ZM168.922 27.564H169.922V10.7671H168.922H167.922V27.564H168.922ZM168.922 10.7671V11.7671H180.094V10.7671V9.76709H168.922V10.7671ZM180.094 10.7671H179.094V27.564H180.094H181.094V10.7671H180.094ZM180.094 27.564H179.094C179.094 30.0322 178.695 32.3795 177.902 34.6118L178.844 34.9468L179.786 35.2818C180.659 32.8266 181.094 30.252 181.094 27.564H180.094ZM178.844 34.9468L177.899 34.6178C177.127 36.8352 176.032 38.8624 174.614 40.7037L175.406 41.314L176.198 41.9242C177.749 39.9113 178.946 37.6938 179.788 35.2757L178.844 34.9468ZM175.406 41.314L174.618 40.6985C173.201 42.5139 171.508 44.0826 169.537 45.4054L170.094 46.2358L170.651 47.0663C172.794 45.6287 174.643 43.9161 176.194 41.9294L175.406 41.314ZM170.094 46.2358L169.537 45.4054C167.577 46.7198 165.418 47.6764 163.052 48.2741L163.297 49.2437L163.542 50.2132C166.124 49.5609 168.495 48.5123 170.651 47.0663L170.094 46.2358ZM163.297 49.2437H162.297V66.7827H163.297H164.297V49.2437H163.297ZM226.681 56.2725V57.2725H227.681V56.2725H226.681ZM221.444 56.2725V55.2725H220.444V56.2725H221.444ZM221.444 66.7827V67.7827H222.444V66.7827H221.444ZM210.934 66.7827H209.934V67.7827H210.934V66.7827ZM210.934 56.2725H211.934V55.2725H210.934V56.2725ZM184.676 56.2725L183.686 56.1343L183.527 57.2725H184.676V56.2725ZM190.536 14.2681V13.2681H189.665L189.545 14.1299L190.536 14.2681ZM201.046 14.2681L202.036 14.4117L202.202 13.2681H201.046V14.2681ZM196.468 45.7988L195.479 45.6552L195.313 46.7988H196.468V45.7988ZM210.934 45.7988V46.7988H211.934V45.7988H210.934ZM210.934 19.5415V18.5415H209.934V19.5415H210.934ZM221.444 19.5415H222.444V18.5415H221.444V19.5415ZM221.444 45.7988H220.444V46.7988H221.444V45.7988ZM226.681 45.7988H227.681V44.7988H226.681V45.7988ZM226.681 56.2725V55.2725H221.444V56.2725V57.2725H226.681V56.2725ZM221.444 56.2725H220.444V66.7827H221.444H222.444V56.2725H221.444ZM221.444 66.7827V65.7827H210.934V66.7827V67.7827H221.444V66.7827ZM210.934 66.7827H211.934V56.2725H210.934H209.934V66.7827H210.934ZM210.934 56.2725V55.2725H184.676V56.2725V57.2725H210.934V56.2725ZM184.676 56.2725L185.667 56.4106L191.526 14.4062L190.536 14.2681L189.545 14.1299L183.686 56.1343L184.676 56.2725ZM190.536 14.2681V15.2681H201.046V14.2681V13.2681H190.536V14.2681ZM201.046 14.2681L200.056 14.1244L195.479 45.6552L196.468 45.7988L197.458 45.9425L202.036 14.4117L201.046 14.2681ZM196.468 45.7988V46.7988H210.934V45.7988V44.7988H196.468V45.7988ZM210.934 45.7988H211.934V19.5415H210.934H209.934V45.7988H210.934ZM210.934 19.5415V20.5415H221.444V19.5415V18.5415H210.934V19.5415ZM221.444 19.5415H220.444V45.7988H221.444H222.444V19.5415H221.444ZM221.444 45.7988V46.7988H226.681V45.7988V44.7988H221.444V45.7988ZM226.681 45.7988H225.681V56.2725H226.681H227.681V45.7988H226.681ZM246.236 66.7827V67.7827H247.236V66.7827H246.236ZM235.025 66.7827H234.025V67.7827H235.025V66.7827ZM235.025 10.7671V9.76709H234.025V10.7671H235.025ZM274.244 10.7671H275.244V9.76709H274.244V10.7671ZM274.244 21.978V22.978H275.244V21.978H274.244ZM246.236 21.978V20.978H245.236V21.978H246.236ZM246.236 33.189H245.236V34.189H246.236V33.189ZM263.033 33.189H264.033V32.189H263.033V33.189ZM263.033 44.3999V45.3999H264.033V44.3999H263.033ZM246.236 44.3999V43.3999H245.236V44.3999H246.236ZM246.236 66.7827V65.7827H235.025V66.7827V67.7827H246.236V66.7827ZM235.025 66.7827H236.025V10.7671H235.025H234.025V66.7827H235.025ZM235.025 10.7671V11.7671H274.244V10.7671V9.76709H235.025V10.7671ZM274.244 10.7671H273.244V21.978H274.244H275.244V10.7671H274.244ZM274.244 21.978V20.978H246.236V21.978V22.978H274.244V21.978ZM246.236 21.978H245.236V33.189H246.236H247.236V21.978H246.236ZM246.236 33.189V34.189H263.033V33.189V32.189H246.236V33.189ZM263.033 33.189H262.033V44.3999H263.033H264.033V33.189H263.033ZM263.033 44.3999V43.3999H246.236V44.3999V45.3999H263.033V44.3999ZM246.236 44.3999H245.236V66.7827H246.236H247.236V44.3999H246.236ZM285.666 15.728L284.959 15.0209L285.666 15.728ZM323.244 10.7671H324.244V9.76709H323.244V10.7671ZM323.244 21.978V22.978H324.244V21.978H323.244ZM293.557 23.6187L292.85 22.9115L293.557 23.6187ZM292.385 29.7905L291.459 30.1679L291.464 30.1802L292.385 29.7905ZM293.557 31.5874L292.832 32.2762L292.849 32.2947L292.868 32.3124L293.557 31.5874ZM315.275 34.5171L314.876 35.4338L314.883 35.4369L314.89 35.4398L315.275 34.5171ZM320.627 38.1108L319.914 38.8119L319.92 38.818L319.926 38.824L320.627 38.1108ZM324.221 43.4624L323.298 43.8478L323.301 43.8549L323.304 43.862L324.221 43.4624ZM324.221 56.5093L323.304 56.1097L323.3 56.1196L324.221 56.5093ZM320.627 61.8608L321.334 62.5679L320.627 61.8608ZM315.275 65.4546L314.88 64.536L314.876 64.5379L315.275 65.4546ZM283.869 66.7827H282.869V67.7827H283.869V66.7827ZM283.869 55.5718V54.5718H282.869V55.5718H283.869ZM312.697 53.9702L311.99 53.2631L312.697 53.9702ZM312.697 46.0405L311.972 46.7293L311.99 46.7479L312.009 46.7655L312.697 46.0405ZM285.666 39.478L284.953 40.1791L284.959 40.1852L284.965 40.1912L285.666 39.478ZM282.072 34.1265L281.154 34.5218L281.156 34.5261L282.072 34.1265ZM280.744 27.564H281.744C281.744 25.3773 282.161 23.3395 282.989 21.4401L282.072 21.0405L281.156 20.6409C280.213 22.804 279.744 25.1152 279.744 27.564H280.744ZM282.072 21.0405L282.989 21.4401C283.826 19.5192 284.954 17.8538 286.373 16.4351L285.666 15.728L284.959 15.0209C283.357 16.6231 282.089 18.4993 281.156 20.6409L282.072 21.0405ZM285.666 15.728L286.373 16.4351C287.819 14.9889 289.498 13.8483 291.417 13.0119L291.018 12.0952L290.618 11.1785C288.474 12.1129 286.586 13.3942 284.959 15.0209L285.666 15.728ZM291.018 12.0952L291.417 13.0119C293.317 12.184 295.354 11.7671 297.541 11.7671V10.7671V9.76709C295.092 9.76709 292.781 10.2356 290.618 11.1785L291.018 12.0952ZM297.541 10.7671V11.7671H323.244V10.7671V9.76709H297.541V10.7671ZM323.244 10.7671H322.244V21.978H323.244H324.244V10.7671H323.244ZM323.244 21.978V20.978H297.541V21.978V22.978H323.244V21.978ZM297.541 21.978V20.978C296.634 20.978 295.772 21.1449 294.964 21.4867L295.354 22.4077L295.743 23.3287C296.289 23.0976 296.885 22.978 297.541 22.978V21.978ZM295.354 22.4077L294.964 21.4867C294.168 21.8235 293.461 22.2998 292.85 22.9115L293.557 23.6187L294.264 24.3258C294.694 23.8958 295.185 23.5649 295.743 23.3287L295.354 22.4077ZM293.557 23.6187L292.85 22.9115C292.259 23.502 291.798 24.1972 291.464 24.9868L292.385 25.3765L293.306 25.7661C293.545 25.2015 293.865 24.7249 294.264 24.3258L293.557 23.6187ZM292.385 25.3765L291.464 24.9868C291.122 25.7948 290.955 26.6574 290.955 27.564H291.955H292.955C292.955 26.9081 293.075 26.3123 293.306 25.7661L292.385 25.3765ZM291.955 27.564H290.955C290.955 28.4707 291.122 29.3414 291.459 30.1678L292.385 29.7905L293.311 29.4132C293.075 28.8334 292.955 28.2197 292.955 27.564H291.955ZM292.385 29.7905L291.464 30.1802C291.796 30.9653 292.252 31.6661 292.832 32.2762L293.557 31.5874L294.282 30.8987C293.872 30.467 293.546 29.9699 293.306 29.4009L292.385 29.7905ZM293.557 31.5874L292.868 32.3124C293.478 32.8919 294.179 33.3481 294.964 33.6802L295.354 32.7593L295.743 31.8383C295.174 31.5976 294.677 31.2725 294.245 30.8624L293.557 31.5874ZM295.354 32.7593L294.964 33.6802C295.772 34.0221 296.634 34.189 297.541 34.189V33.189V32.189C296.885 32.189 296.289 32.0694 295.743 31.8383L295.354 32.7593ZM297.541 33.189V34.189H308.752V33.189V32.189H297.541V33.189ZM308.752 33.189V34.189C310.939 34.189 312.976 34.6058 314.876 35.4338L315.275 34.5171L315.675 33.6004C313.512 32.6575 311.201 32.189 308.752 32.189V33.189ZM315.275 34.5171L314.89 35.4398C316.829 36.2497 318.5 37.3737 319.914 38.8119L320.627 38.1108L321.34 37.4098C319.733 35.775 317.837 34.5032 315.661 33.5944L315.275 34.5171ZM320.627 38.1108L319.926 38.824C321.364 40.2377 322.488 41.9091 323.298 43.8478L324.221 43.4624L325.143 43.077C324.235 40.9011 322.963 39.0048 321.328 37.3977L320.627 38.1108ZM324.221 43.4624L323.304 43.862C324.132 45.7614 324.549 47.7992 324.549 49.9858H325.549H326.549C326.549 47.5371 326.08 45.2259 325.137 43.0628L324.221 43.4624ZM325.549 49.9858H324.549C324.549 52.1725 324.132 54.2103 323.304 56.1097L324.221 56.5093L325.137 56.9089C326.08 54.7458 326.549 52.4346 326.549 49.9858H325.549ZM324.221 56.5093L323.3 56.1196C322.49 58.0341 321.364 59.7097 319.92 61.1537L320.627 61.8608L321.334 62.5679C322.963 60.939 324.233 59.0469 325.142 56.8989L324.221 56.5093ZM320.627 61.8608L319.92 61.1537C318.503 62.5702 316.827 63.6982 314.88 64.536L315.275 65.4546L315.671 66.3731C317.839 65.4401 319.73 64.1723 321.334 62.5679L320.627 61.8608ZM315.275 65.4546L314.876 64.5379C312.976 65.3658 310.939 65.7827 308.752 65.7827V66.7827V67.7827C311.201 67.7827 313.512 67.3142 315.675 66.3713L315.275 65.4546ZM308.752 66.7827V65.7827H283.869V66.7827V67.7827H308.752V66.7827ZM283.869 66.7827H284.869V55.5718H283.869H282.869V66.7827H283.869ZM283.869 55.5718V56.5718H308.752V55.5718V54.5718H283.869V55.5718ZM308.752 55.5718V56.5718C309.659 56.5718 310.521 56.4049 311.329 56.0631L310.939 55.1421L310.55 54.2211C310.004 54.4522 309.408 54.5718 308.752 54.5718V55.5718ZM310.939 55.1421L311.329 56.0631C312.119 55.729 312.814 55.2677 313.404 54.6773L312.697 53.9702L311.99 53.2631C311.591 53.6623 311.114 53.9823 310.55 54.2211L310.939 55.1421ZM312.697 53.9702L313.404 54.6773C314.016 54.0656 314.492 53.3589 314.829 52.563L313.908 52.1733L312.987 51.7837C312.751 52.3419 312.42 52.8332 311.99 53.2631L312.697 53.9702ZM313.908 52.1733L314.829 52.563C315.171 51.755 315.338 50.8924 315.338 49.9858H314.338H313.338C313.338 50.6417 313.218 51.2375 312.987 51.7837L313.908 52.1733ZM314.338 49.9858H315.338C315.338 49.0792 315.171 48.2167 314.829 47.4087L313.908 47.7983L312.987 48.188C313.218 48.7342 313.338 49.3299 313.338 49.9858H314.338ZM313.908 47.7983L314.829 47.4087C314.49 46.6081 314.009 45.9072 313.386 45.3155L312.697 46.0405L312.009 46.7655C312.427 47.1634 312.753 47.6344 312.987 48.188L313.908 47.7983ZM312.697 46.0405L313.422 45.3518C312.831 44.729 312.13 44.2473 311.329 43.9086L310.939 44.8296L310.55 45.7506C311.103 45.9848 311.574 46.3104 311.972 46.7293L312.697 46.0405ZM310.939 44.8296L311.329 43.9086C310.521 43.5668 309.659 43.3999 308.752 43.3999V44.3999V45.3999C309.408 45.3999 310.004 45.5195 310.55 45.7506L310.939 44.8296ZM308.752 44.3999V43.3999H297.541V44.3999V45.3999H308.752V44.3999ZM297.541 44.3999V43.3999C295.354 43.3999 293.317 42.983 291.417 42.1551L291.018 43.0718L290.618 43.9885C292.781 44.9314 295.092 45.3999 297.541 45.3999V44.3999ZM291.018 43.0718L291.417 42.1551C289.495 41.3171 287.814 40.1872 286.367 38.7649L285.666 39.478L284.965 40.1912C286.591 41.7897 288.478 43.0556 290.618 43.9885L291.018 43.0718ZM285.666 39.478L286.379 38.777C284.957 37.3302 283.827 35.6493 282.989 33.7269L282.072 34.1265L281.156 34.5261C282.088 36.6661 283.354 38.5529 284.953 40.1791L285.666 39.478ZM282.072 34.1265L282.991 33.7311C282.161 31.8031 281.744 29.7506 281.744 27.564H280.744H279.744C279.744 30.0128 280.213 32.3353 281.154 34.5218L282.072 34.1265ZM344.143 66.7827V67.7827H345.143V66.7827H344.143ZM332.932 66.7827H331.932V67.7827H332.932V66.7827ZM332.932 10.7671V9.76709H331.932V10.7671H332.932ZM344.143 10.7671H345.143V9.76709H344.143V10.7671ZM344.143 38.7749H343.143V41.7918L344.945 39.3722L344.143 38.7749ZM365.002 10.7671V9.76709H364.5L364.2 10.1698L365.002 10.7671ZM377.736 10.7671L378.537 11.3665L379.734 9.76709H377.736V10.7671ZM360.041 34.3999L359.241 33.8005L358.855 34.3152L359.163 34.8794L360.041 34.3999ZM377.736 66.7827V67.7827H379.422L378.614 66.3032L377.736 66.7827ZM365.002 66.7827L364.123 67.26L364.407 67.7827H365.002V66.7827ZM352.697 44.1265L353.576 43.6492L352.831 42.2773L351.896 43.5278L352.697 44.1265ZM344.143 55.5718L343.342 54.9731L343.143 55.2394V55.5718H344.143ZM344.143 66.7827V65.7827H332.932V66.7827V67.7827H344.143V66.7827ZM332.932 66.7827H333.932V10.7671H332.932H331.932V66.7827H332.932ZM332.932 10.7671V11.7671H344.143V10.7671V9.76709H332.932V10.7671ZM344.143 10.7671H343.143V38.7749H344.143H345.143V10.7671H344.143ZM344.143 38.7749L344.945 39.3722L365.804 11.3644L365.002 10.7671L364.2 10.1698L343.341 38.1776L344.143 38.7749ZM365.002 10.7671V11.7671H377.736V10.7671V9.76709H365.002V10.7671ZM377.736 10.7671L376.936 10.1677L359.241 33.8005L360.041 34.3999L360.841 34.9993L378.537 11.3665L377.736 10.7671ZM360.041 34.3999L359.163 34.8794L376.859 67.2622L377.736 66.7827L378.614 66.3032L360.919 33.9204L360.041 34.3999ZM377.736 66.7827V65.7827H365.002V66.7827V67.7827H377.736V66.7827ZM365.002 66.7827L365.881 66.3055L353.576 43.6492L352.697 44.1265L351.819 44.6037L364.123 67.26L365.002 66.7827ZM352.697 44.1265L351.896 43.5278L343.342 54.9731L344.143 55.5718L344.944 56.1705L353.498 44.7252L352.697 44.1265ZM344.143 55.5718H343.143V66.7827H344.143H345.143V55.5718H344.143Z" fill="black"/>
<path d="M61.5 33C61 30.5 57 29 55.5 27.5C59.3333 27 71 25.9999 68 27.9999C65.6703 29.5531 62.6667 31.3333 62.5 33C62.3333 33.8333 61.9 35 61.5 33Z" fill="black" stroke="black"/>
<rect x="262.819" y="32.1836" width="10" height="13.2179" fill="black"/>
<path d="M66.5 67H57V60L62 56L66.5 60V67Z" fill="black"/>
<path d="M57 67H66.5V60L62 56L57 60V67.5" stroke="black"/>
<rect x="60.4444" y="25" width="3.11121" height="33" fill="black"/>
<circle cx="62" cy="17" r="13" fill="black"/>
</g>
<defs>
<clipPath id="clip0_140_10">
<rect width="378" height="72" fill="white"/>
</clipPath>
</defs>
</svg>
