<svg width="384" height="93" viewBox="0 0 384 93" fill="none" xmlns="http://www.w3.org/2000/svg">
<g clip-path="url(#clip0_142_70)">
<path d="M29.7109 63.499H18.5391V18.6943H1.70312V7.4834H46.5078V18.6943H29.7109V63.499ZM131.672 63.499H119.68L98.0781 26.624V63.499H86.8672V7.4834H98.8594L120.461 44.3975V7.4834H131.672V63.499ZM167.297 63.499H156.125V45.96C153.651 45.335 151.372 44.3324 149.289 42.9521C147.232 41.5719 145.461 39.9313 143.977 38.0303C142.492 36.1032 141.333 33.9808 140.5 31.6631C139.693 29.3193 139.289 26.8584 139.289 24.2803V7.4834H150.5V24.2803C150.5 25.8167 150.786 27.2751 151.359 28.6553C151.958 30.0094 152.766 31.1943 153.781 32.21C154.797 33.2256 155.982 34.0329 157.336 34.6318C158.716 35.2048 160.174 35.4912 161.711 35.4912C163.247 35.4912 164.693 35.2048 166.047 34.6318C167.427 34.0329 168.625 33.2256 169.641 32.21C170.656 31.1943 171.451 30.0094 172.023 28.6553C172.622 27.2751 172.922 25.8167 172.922 24.2803V7.4834H184.094V24.2803C184.094 26.8584 183.677 29.3193 182.844 31.6631C182.036 33.9808 180.891 36.1032 179.406 38.0303C177.922 39.9313 176.151 41.5719 174.094 42.9521C172.036 44.3324 169.771 45.335 167.297 45.96V63.499ZM230.681 52.9888H225.444V63.499H214.934V52.9888H188.676L194.536 10.9844H205.046L200.468 42.5151H214.934V16.2578H225.444V42.5151H230.681V52.9888ZM250.236 63.499H239.025V7.4834H278.244V18.6943H250.236V29.9053H267.033V41.1162H250.236V63.499ZM284.744 24.2803C284.744 21.9626 285.187 19.7881 286.072 17.7568C286.958 15.7256 288.156 13.9548 289.666 12.4443C291.202 10.9079 292.986 9.69694 295.018 8.81152C297.049 7.92611 299.223 7.4834 301.541 7.4834H327.244V18.6943H301.541C300.76 18.6943 300.031 18.8376 299.354 19.124C298.676 19.4105 298.077 19.8141 297.557 20.335C297.062 20.8298 296.671 21.4157 296.385 22.0928C296.098 22.7699 295.955 23.499 295.955 24.2803C295.955 25.0615 296.098 25.8037 296.385 26.5068C296.671 27.1839 297.062 27.7829 297.557 28.3037C298.077 28.7985 298.676 29.1891 299.354 29.4756C300.031 29.762 300.76 29.9053 301.541 29.9053H312.752C315.07 29.9053 317.244 30.348 319.275 31.2334C321.333 32.0928 323.117 33.2907 324.627 34.8271C326.163 36.3376 327.361 38.1214 328.221 40.1787C329.106 42.21 329.549 44.3844 329.549 46.7021C329.549 49.0199 329.106 51.1943 328.221 53.2256C327.361 55.2568 326.163 57.0407 324.627 58.5771C323.117 60.0876 321.333 61.2855 319.275 62.1709C317.244 63.0563 315.07 63.499 312.752 63.499H287.869V52.2881H312.752C313.533 52.2881 314.262 52.1449 314.939 51.8584C315.617 51.5719 316.202 51.1813 316.697 50.6865C317.218 50.1657 317.622 49.5667 317.908 48.8896C318.195 48.2126 318.338 47.4834 318.338 46.7021C318.338 45.9209 318.195 45.1917 317.908 44.5146C317.622 43.8376 317.218 43.2516 316.697 42.7568C316.202 42.236 315.617 41.8324 314.939 41.5459C314.262 41.2594 313.533 41.1162 312.752 41.1162H301.541C299.223 41.1162 297.049 40.6735 295.018 39.7881C292.986 38.9027 291.202 37.7048 289.666 36.1943C288.156 34.6579 286.958 32.874 286.072 30.8428C285.187 28.7855 284.744 26.598 284.744 24.2803ZM348.143 63.499H336.932V7.4834H348.143V35.4912L369.002 7.4834H381.736L364.041 31.1162L381.736 63.499H369.002L356.697 40.8428L348.143 52.2881V63.499Z" fill="black"/>
<path d="M29.7109 63.499V64.499H30.7109V63.499H29.7109ZM18.5391 63.499H17.5391V64.499H18.5391V63.499ZM18.5391 18.6943H19.5391V17.6943H18.5391V18.6943ZM1.70312 18.6943H0.703125V19.6943H1.70312V18.6943ZM1.70312 7.4834V6.4834H0.703125V7.4834H1.70312ZM46.5078 7.4834H47.5078V6.4834H46.5078V7.4834ZM46.5078 18.6943V19.6943H47.5078V18.6943H46.5078ZM29.7109 18.6943V17.6943H28.7109V18.6943H29.7109ZM29.7109 63.499V62.499H18.5391V63.499V64.499H29.7109V63.499ZM18.5391 63.499H19.5391V18.6943H18.5391H17.5391V63.499H18.5391ZM18.5391 18.6943V17.6943H1.70312V18.6943V19.6943H18.5391V18.6943ZM1.70312 18.6943H2.70312V7.4834H1.70312H0.703125V18.6943H1.70312ZM1.70312 7.4834V8.4834H46.5078V7.4834V6.4834H1.70312V7.4834ZM46.5078 7.4834H45.5078V18.6943H46.5078H47.5078V7.4834H46.5078ZM46.5078 18.6943V17.6943H29.7109V18.6943V19.6943H46.5078V18.6943ZM29.7109 18.6943H28.7109V63.499H29.7109H30.7109V18.6943H29.7109ZM131.672 63.499V64.499H132.672V63.499H131.672ZM119.68 63.499L118.817 64.0045L119.107 64.499H119.68V63.499ZM98.0781 26.624L98.941 26.1186L97.0781 22.9386V26.624H98.0781ZM98.0781 63.499V64.499H99.0781V63.499H98.0781ZM86.8672 63.499H85.8672V64.499H86.8672V63.499ZM86.8672 7.4834V6.4834H85.8672V7.4834H86.8672ZM98.8594 7.4834L99.7225 6.97834L99.4328 6.4834H98.8594V7.4834ZM120.461 44.3975L119.598 44.9025L121.461 48.0863V44.3975H120.461ZM120.461 7.4834V6.4834H119.461V7.4834H120.461ZM131.672 7.4834H132.672V6.4834H131.672V7.4834ZM131.672 63.499V62.499H119.68V63.499V64.499H131.672V63.499ZM119.68 63.499L120.543 62.9936L98.941 26.1186L98.0781 26.624L97.2153 27.1295L118.817 64.0045L119.68 63.499ZM98.0781 26.624H97.0781V63.499H98.0781H99.0781V26.624H98.0781ZM98.0781 63.499V62.499H86.8672V63.499V64.499H98.0781V63.499ZM86.8672 63.499H87.8672V7.4834H86.8672H85.8672V63.499H86.8672ZM86.8672 7.4834V8.4834H98.8594V7.4834V6.4834H86.8672V7.4834ZM98.8594 7.4834L97.9963 7.98846L119.598 44.9025L120.461 44.3975L121.324 43.8924L99.7225 6.97834L98.8594 7.4834ZM120.461 44.3975H121.461V7.4834H120.461H119.461V44.3975H120.461ZM120.461 7.4834V8.4834H131.672V7.4834V6.4834H120.461V7.4834ZM131.672 7.4834H130.672V63.499H131.672H132.672V7.4834H131.672ZM167.297 63.499V64.499H168.297V63.499H167.297ZM156.125 63.499H155.125V64.499H156.125V63.499ZM156.125 45.96H157.125V45.1812L156.37 44.9904L156.125 45.96ZM149.289 42.9521L148.732 43.7826L148.737 43.7858L149.289 42.9521ZM143.977 38.0303L143.184 38.6405L143.188 38.6457L143.977 38.0303ZM140.5 31.6631L139.554 31.9888L139.559 32.0014L140.5 31.6631ZM139.289 7.4834V6.4834H138.289V7.4834H139.289ZM150.5 7.4834H151.5V6.4834H150.5V7.4834ZM151.359 28.6553L150.436 29.0387L150.44 29.0493L150.445 29.0598L151.359 28.6553ZM157.336 34.6318L156.931 35.5464L156.942 35.551L156.953 35.5554L157.336 34.6318ZM166.047 34.6318L166.437 35.5528L166.445 35.5492L166.047 34.6318ZM172.023 28.6553L171.106 28.2572L171.102 28.2656L172.023 28.6553ZM172.922 7.4834V6.4834H171.922V7.4834H172.922ZM184.094 7.4834H185.094V6.4834H184.094V7.4834ZM182.844 31.6631L181.902 31.3281L181.899 31.3342L182.844 31.6631ZM179.406 38.0303L180.194 38.6457L180.198 38.6405L179.406 38.0303ZM174.094 42.9521L174.651 43.7826L174.094 42.9521ZM167.297 45.96L167.052 44.9904L166.297 45.1812V45.96H167.297ZM167.297 63.499V62.499H156.125V63.499V64.499H167.297V63.499ZM156.125 63.499H157.125V45.96H156.125H155.125V63.499H156.125ZM156.125 45.96L156.37 44.9904C154.003 44.3925 151.829 43.4351 149.841 42.1185L149.289 42.9521L148.737 43.7858C150.916 45.2296 153.299 46.2775 155.88 46.9295L156.125 45.96ZM149.289 42.9521L149.846 42.1217C147.874 40.7989 146.182 39.2302 144.765 37.4148L143.977 38.0303L143.188 38.6457C144.74 40.6325 146.589 42.345 148.732 43.7826L149.289 42.9521ZM143.977 38.0303L144.769 37.42C143.349 35.5763 142.24 33.5459 141.441 31.3247L140.5 31.6631L139.559 32.0014C140.427 34.4157 141.636 36.63 143.184 38.6405L143.977 38.0303ZM140.5 31.6631L141.445 31.3374C140.676 29.1026 140.289 26.7521 140.289 24.2803H139.289H138.289C138.289 26.9647 138.71 29.5361 139.555 31.9888L140.5 31.6631ZM139.289 24.2803H140.289V7.4834H139.289H138.289V24.2803H139.289ZM139.289 7.4834V8.4834H150.5V7.4834V6.4834H139.289V7.4834ZM150.5 7.4834H149.5V24.2803H150.5H151.5V7.4834H150.5ZM150.5 24.2803H149.5C149.5 25.9445 149.811 27.5335 150.436 29.0387L151.359 28.6553L152.283 28.2719C151.762 27.0167 151.5 25.6889 151.5 24.2803H150.5ZM151.359 28.6553L150.445 29.0598C151.092 30.5232 151.969 31.8115 153.074 32.9171L153.781 32.21L154.488 31.5029C153.563 30.5771 152.825 29.4957 152.274 28.2508L151.359 28.6553ZM153.781 32.21L153.074 32.9171C154.18 34.0226 155.468 34.8991 156.931 35.5464L157.336 34.6318L157.74 33.7173C156.496 33.1667 155.414 32.4286 154.488 31.5029L153.781 32.21ZM157.336 34.6318L156.953 35.5554C158.458 36.1802 160.047 36.4912 161.711 36.4912V35.4912V34.4912C160.302 34.4912 158.975 34.2293 157.719 33.7082L157.336 34.6318ZM161.711 35.4912V36.4912C163.375 36.4912 164.954 36.1802 166.437 35.5528L166.047 34.6318L165.657 33.7109C164.432 34.2293 163.12 34.4912 161.711 34.4912V35.4912ZM166.047 34.6318L166.445 35.5492C167.935 34.9026 169.239 34.0258 170.348 32.9171L169.641 32.21L168.934 31.5029C168.011 32.4254 166.919 33.1632 165.649 33.7145L166.047 34.6318ZM169.641 32.21L170.348 32.9171C171.457 31.8082 172.323 30.5148 172.944 29.0449L172.023 28.6553L171.102 28.2656C170.579 29.5041 169.856 30.5805 168.934 31.5029L169.641 32.21ZM172.023 28.6553L172.941 29.0534C173.595 27.5448 173.922 25.9507 173.922 24.2803H172.922H171.922C171.922 25.6828 171.649 27.0053 171.106 28.2572L172.023 28.6553ZM172.922 24.2803H173.922V7.4834H172.922H171.922V24.2803H172.922ZM172.922 7.4834V8.4834H184.094V7.4834V6.4834H172.922V7.4834ZM184.094 7.4834H183.094V24.2803H184.094H185.094V7.4834H184.094ZM184.094 24.2803H183.094C183.094 26.7485 182.695 29.0958 181.902 31.3281L182.844 31.6631L183.786 31.9981C184.659 29.5429 185.094 26.9683 185.094 24.2803H184.094ZM182.844 31.6631L181.899 31.3342C181.127 33.5515 180.032 35.5787 178.614 37.42L179.406 38.0303L180.198 38.6405C181.749 36.6276 182.946 34.4101 183.788 31.992L182.844 31.6631ZM179.406 38.0303L178.618 37.4148C177.201 39.2302 175.508 40.7989 173.537 42.1217L174.094 42.9521L174.651 43.7826C176.794 42.345 178.643 40.6325 180.194 38.6457L179.406 38.0303ZM174.094 42.9521L173.537 42.1217C171.577 43.4361 169.418 44.3927 167.052 44.9904L167.297 45.96L167.542 46.9295C170.124 46.2772 172.495 45.2286 174.651 43.7826L174.094 42.9521ZM167.297 45.96H166.297V63.499H167.297H168.297V45.96H167.297ZM230.681 52.9888V53.9888H231.681V52.9888H230.681ZM225.444 52.9888V51.9888H224.444V52.9888H225.444ZM225.444 63.499V64.499H226.444V63.499H225.444ZM214.934 63.499H213.934V64.499H214.934V63.499ZM214.934 52.9888H215.934V51.9888H214.934V52.9888ZM188.676 52.9888L187.686 52.8506L187.527 53.9888H188.676V52.9888ZM194.536 10.9844V9.98438H193.665L193.545 10.8462L194.536 10.9844ZM205.046 10.9844L206.036 11.128L206.202 9.98438H205.046V10.9844ZM200.468 42.5151L199.479 42.3715L199.313 43.5151H200.468V42.5151ZM214.934 42.5151V43.5151H215.934V42.5151H214.934ZM214.934 16.2578V15.2578H213.934V16.2578H214.934ZM225.444 16.2578H226.444V15.2578H225.444V16.2578ZM225.444 42.5151H224.444V43.5151H225.444V42.5151ZM230.681 42.5151H231.681V41.5151H230.681V42.5151ZM230.681 52.9888V51.9888H225.444V52.9888V53.9888H230.681V52.9888ZM225.444 52.9888H224.444V63.499H225.444H226.444V52.9888H225.444ZM225.444 63.499V62.499H214.934V63.499V64.499H225.444V63.499ZM214.934 63.499H215.934V52.9888H214.934H213.934V63.499H214.934ZM214.934 52.9888V51.9888H188.676V52.9888V53.9888H214.934V52.9888ZM188.676 52.9888L189.667 53.1269L195.526 11.1225L194.536 10.9844L193.545 10.8462L187.686 52.8506L188.676 52.9888ZM194.536 10.9844V11.9844H205.046V10.9844V9.98438H194.536V10.9844ZM205.046 10.9844L204.056 10.8407L199.479 42.3715L200.468 42.5151L201.458 42.6588L206.036 11.128L205.046 10.9844ZM200.468 42.5151V43.5151H214.934V42.5151V41.5151H200.468V42.5151ZM214.934 42.5151H215.934V16.2578H214.934H213.934V42.5151H214.934ZM214.934 16.2578V17.2578H225.444V16.2578V15.2578H214.934V16.2578ZM225.444 16.2578H224.444V42.5151H225.444H226.444V16.2578H225.444ZM225.444 42.5151V43.5151H230.681V42.5151V41.5151H225.444V42.5151ZM230.681 42.5151H229.681V52.9888H230.681H231.681V42.5151H230.681ZM250.236 63.499V64.499H251.236V63.499H250.236ZM239.025 63.499H238.025V64.499H239.025V63.499ZM239.025 7.4834V6.4834H238.025V7.4834H239.025ZM278.244 7.4834H279.244V6.4834H278.244V7.4834ZM278.244 18.6943V19.6943H279.244V18.6943H278.244ZM250.236 18.6943V17.6943H249.236V18.6943H250.236ZM250.236 29.9053H249.236V30.9053H250.236V29.9053ZM267.033 29.9053H268.033V28.9053H267.033V29.9053ZM267.033 41.1162V42.1162H268.033V41.1162H267.033ZM250.236 41.1162V40.1162H249.236V41.1162H250.236ZM250.236 63.499V62.499H239.025V63.499V64.499H250.236V63.499ZM239.025 63.499H240.025V7.4834H239.025H238.025V63.499H239.025ZM239.025 7.4834V8.4834H278.244V7.4834V6.4834H239.025V7.4834ZM278.244 7.4834H277.244V18.6943H278.244H279.244V7.4834H278.244ZM278.244 18.6943V17.6943H250.236V18.6943V19.6943H278.244V18.6943ZM250.236 18.6943H249.236V29.9053H250.236H251.236V18.6943H250.236ZM250.236 29.9053V30.9053H267.033V29.9053V28.9053H250.236V29.9053ZM267.033 29.9053H266.033V41.1162H267.033H268.033V29.9053H267.033ZM267.033 41.1162V40.1162H250.236V41.1162V42.1162H267.033V41.1162ZM250.236 41.1162H249.236V63.499H250.236H251.236V41.1162H250.236ZM289.666 12.4443L288.959 11.7372L289.666 12.4443ZM327.244 7.4834H328.244V6.4834H327.244V7.4834ZM327.244 18.6943V19.6943H328.244V18.6943H327.244ZM297.557 20.335L296.85 19.6279L297.557 20.335ZM296.385 26.5068L295.459 26.8842L295.464 26.8965L296.385 26.5068ZM297.557 28.3037L296.832 28.9925L296.849 29.0111L296.868 29.0287L297.557 28.3037ZM319.275 31.2334L318.876 32.1501L318.883 32.1532L318.89 32.1561L319.275 31.2334ZM324.627 34.8271L323.914 35.5282L323.92 35.5343L323.926 35.5403L324.627 34.8271ZM328.221 40.1787L327.298 40.5642L327.301 40.5713L327.304 40.5783L328.221 40.1787ZM328.221 53.2256L327.304 52.826L327.3 52.8359L328.221 53.2256ZM324.627 58.5771L325.334 59.2843L324.627 58.5771ZM319.275 62.1709L318.88 61.2523L318.876 61.2542L319.275 62.1709ZM287.869 63.499H286.869V64.499H287.869V63.499ZM287.869 52.2881V51.2881H286.869V52.2881H287.869ZM316.697 50.6865L315.99 49.9794L316.697 50.6865ZM316.697 42.7568L315.972 43.4456L315.99 43.4642L316.009 43.4818L316.697 42.7568ZM289.666 36.1943L288.953 36.8954L288.959 36.9015L288.965 36.9075L289.666 36.1943ZM286.072 30.8428L285.154 31.2381L285.156 31.2424L286.072 30.8428ZM284.744 24.2803H285.744C285.744 22.0936 286.161 20.0558 286.989 18.1564L286.072 17.7568L285.156 17.3573C284.213 19.5203 283.744 21.8315 283.744 24.2803H284.744ZM286.072 17.7568L286.989 18.1564C287.826 16.2355 288.954 14.5701 290.373 13.1514L289.666 12.4443L288.959 11.7372C287.357 13.3394 286.089 15.2156 285.156 17.3573L286.072 17.7568ZM289.666 12.4443L290.373 13.1514C291.819 11.7052 293.498 10.5646 295.417 9.72822L295.018 8.81152L294.618 7.89483C292.474 8.82924 290.586 10.1105 288.959 11.7372L289.666 12.4443ZM295.018 8.81152L295.417 9.72822C297.317 8.90027 299.354 8.4834 301.541 8.4834V7.4834V6.4834C299.092 6.4834 296.781 6.95195 294.618 7.89483L295.018 8.81152ZM301.541 7.4834V8.4834H327.244V7.4834V6.4834H301.541V7.4834ZM327.244 7.4834H326.244V18.6943H327.244H328.244V7.4834H327.244ZM327.244 18.6943V17.6943H301.541V18.6943V19.6943H327.244V18.6943ZM301.541 18.6943V17.6943C300.634 17.6943 299.772 17.8612 298.964 18.2031L299.354 19.124L299.743 20.045C300.289 19.8139 300.885 19.6943 301.541 19.6943V18.6943ZM299.354 19.124L298.964 18.2031C298.168 18.5398 297.461 19.0161 296.85 19.6279L297.557 20.335L298.264 21.0421C298.694 20.6121 299.185 20.2812 299.743 20.045L299.354 19.124ZM297.557 20.335L296.85 19.6279C296.259 20.2183 295.798 20.9135 295.464 21.7031L296.385 22.0928L297.306 22.4824C297.545 21.9178 297.865 21.4412 298.264 21.0421L297.557 20.335ZM296.385 22.0928L295.464 21.7031C295.122 22.5111 294.955 23.3737 294.955 24.2803H295.955H296.955C296.955 23.6244 297.075 23.0286 297.306 22.4824L296.385 22.0928ZM295.955 24.2803H294.955C294.955 25.1871 295.122 26.0577 295.459 26.8841L296.385 26.5068L297.311 26.1295C297.075 25.5497 296.955 24.936 296.955 24.2803H295.955ZM296.385 26.5068L295.464 26.8965C295.796 27.6816 296.252 28.3825 296.832 28.9925L297.557 28.3037L298.282 27.615C297.872 27.1833 297.546 26.6862 297.306 26.1172L296.385 26.5068ZM297.557 28.3037L296.868 29.0287C297.478 29.6082 298.179 30.0644 298.964 30.3966L299.354 29.4756L299.743 28.5546C299.174 28.3139 298.677 27.9888 298.245 27.5787L297.557 28.3037ZM299.354 29.4756L298.964 30.3966C299.772 30.7384 300.634 30.9053 301.541 30.9053V29.9053V28.9053C300.885 28.9053 300.289 28.7857 299.743 28.5546L299.354 29.4756ZM301.541 29.9053V30.9053H312.752V29.9053V28.9053H301.541V29.9053ZM312.752 29.9053V30.9053C314.939 30.9053 316.976 31.3221 318.876 32.1501L319.275 31.2334L319.675 30.3167C317.512 29.3738 315.201 28.9053 312.752 28.9053V29.9053ZM319.275 31.2334L318.89 32.1561C320.829 32.966 322.5 34.09 323.914 35.5282L324.627 34.8271L325.34 34.1261C323.733 32.4913 321.837 31.2196 319.661 30.3107L319.275 31.2334ZM324.627 34.8271L323.926 35.5403C325.364 36.9541 326.488 38.6254 327.298 40.5642L328.221 40.1787L329.143 39.7933C328.235 37.6174 326.963 35.7211 325.328 34.114L324.627 34.8271ZM328.221 40.1787L327.304 40.5783C328.132 42.4777 328.549 44.5155 328.549 46.7021H329.549H330.549C330.549 44.2534 330.08 41.9422 329.137 39.7791L328.221 40.1787ZM329.549 46.7021H328.549C328.549 48.8888 328.132 50.9266 327.304 52.826L328.221 53.2256L329.137 53.6252C330.08 51.4621 330.549 49.1509 330.549 46.7021H329.549ZM328.221 53.2256L327.3 52.8359C326.49 54.7504 325.364 56.426 323.92 57.87L324.627 58.5771L325.334 59.2843C326.963 57.6553 328.233 55.7633 329.142 53.6152L328.221 53.2256ZM324.627 58.5771L323.92 57.87C322.503 59.2866 320.827 60.4146 318.88 61.2524L319.275 62.1709L319.671 63.0894C321.839 62.1564 323.73 60.8886 325.334 59.2843L324.627 58.5771ZM319.275 62.1709L318.876 61.2542C316.976 62.0822 314.939 62.499 312.752 62.499V63.499V64.499C315.201 64.499 317.512 64.0305 319.675 63.0876L319.275 62.1709ZM312.752 63.499V62.499H287.869V63.499V64.499H312.752V63.499ZM287.869 63.499H288.869V52.2881H287.869H286.869V63.499H287.869ZM287.869 52.2881V53.2881H312.752V52.2881V51.2881H287.869V52.2881ZM312.752 52.2881V53.2881C313.659 53.2881 314.521 53.1212 315.329 52.7794L314.939 51.8584L314.55 50.9374C314.004 51.1685 313.408 51.2881 312.752 51.2881V52.2881ZM314.939 51.8584L315.329 52.7794C316.119 52.4453 316.814 51.9841 317.404 51.3936L316.697 50.6865L315.99 49.9794C315.591 50.3786 315.114 50.6986 314.55 50.9374L314.939 51.8584ZM316.697 50.6865L317.404 51.3936C318.016 50.7819 318.492 50.0752 318.829 49.2793L317.908 48.8896L316.987 48.5C316.751 49.0583 316.42 49.5495 315.99 49.9794L316.697 50.6865ZM317.908 48.8896L318.829 49.2793C319.171 48.4713 319.338 47.6087 319.338 46.7021H318.338H317.338C317.338 47.358 317.218 47.9538 316.987 48.5L317.908 48.8896ZM318.338 46.7021H319.338C319.338 45.7955 319.171 44.933 318.829 44.125L317.908 44.5146L316.987 44.9043C317.218 45.4505 317.338 46.0462 317.338 46.7021H318.338ZM317.908 44.5146L318.829 44.125C318.49 43.3244 318.009 42.6235 317.386 42.0318L316.697 42.7568L316.009 43.4818C316.427 43.8797 316.753 44.3507 316.987 44.9043L317.908 44.5146ZM316.697 42.7568L317.422 42.0681C316.831 41.4453 316.13 40.9636 315.329 40.6249L314.939 41.5459L314.55 42.4669C315.103 42.7011 315.574 43.0267 315.972 43.4456L316.697 42.7568ZM314.939 41.5459L315.329 40.6249C314.521 40.2831 313.659 40.1162 312.752 40.1162V41.1162V42.1162C313.408 42.1162 314.004 42.2358 314.55 42.4669L314.939 41.5459ZM312.752 41.1162V40.1162H301.541V41.1162V42.1162H312.752V41.1162ZM301.541 41.1162V40.1162C299.354 40.1162 297.317 39.6993 295.417 38.8714L295.018 39.7881L294.618 40.7048C296.781 41.6477 299.092 42.1162 301.541 42.1162V41.1162ZM295.018 39.7881L295.417 38.8714C293.495 38.0334 291.814 36.9035 290.367 35.4812L289.666 36.1943L288.965 36.9075C290.591 38.506 292.478 39.7719 294.618 40.7048L295.018 39.7881ZM289.666 36.1943L290.379 35.4933C288.957 34.0465 287.827 32.3656 286.989 30.4432L286.072 30.8428L285.156 31.2424C286.088 33.3824 287.354 35.2692 288.953 36.8954L289.666 36.1943ZM286.072 30.8428L286.991 30.4475C286.161 28.5194 285.744 26.4669 285.744 24.2803H284.744H283.744C283.744 26.7291 284.213 29.0516 285.154 31.2381L286.072 30.8428ZM348.143 63.499V64.499H349.143V63.499H348.143ZM336.932 63.499H335.932V64.499H336.932V63.499ZM336.932 7.4834V6.4834H335.932V7.4834H336.932ZM348.143 7.4834H349.143V6.4834H348.143V7.4834ZM348.143 35.4912H347.143V38.5081L348.945 36.0885L348.143 35.4912ZM369.002 7.4834V6.4834H368.5L368.2 6.88609L369.002 7.4834ZM381.736 7.4834L382.537 8.08276L383.734 6.4834H381.736V7.4834ZM364.041 31.1162L363.241 30.5168L362.855 31.0315L363.163 31.5957L364.041 31.1162ZM381.736 63.499V64.499H383.422L382.614 63.0195L381.736 63.499ZM369.002 63.499L368.123 63.9763L368.407 64.499H369.002V63.499ZM356.697 40.8428L357.576 40.3655L356.831 38.9936L355.896 40.2441L356.697 40.8428ZM348.143 52.2881L347.342 51.6894L347.143 51.9557V52.2881H348.143ZM348.143 63.499V62.499H336.932V63.499V64.499H348.143V63.499ZM336.932 63.499H337.932V7.4834H336.932H335.932V63.499H336.932ZM336.932 7.4834V8.4834H348.143V7.4834V6.4834H336.932V7.4834ZM348.143 7.4834H347.143V35.4912H348.143H349.143V7.4834H348.143ZM348.143 35.4912L348.945 36.0885L369.804 8.08071L369.002 7.4834L368.2 6.88609L347.341 34.8939L348.143 35.4912ZM369.002 7.4834V8.4834H381.736V7.4834V6.4834H369.002V7.4834ZM381.736 7.4834L380.936 6.88403L363.241 30.5168L364.041 31.1162L364.841 31.7156L382.537 8.08276L381.736 7.4834ZM364.041 31.1162L363.163 31.5957L380.859 63.9785L381.736 63.499L382.614 63.0195L364.919 30.6367L364.041 31.1162ZM381.736 63.499V62.499H369.002V63.499V64.499H381.736V63.499ZM369.002 63.499L369.881 63.0218L357.576 40.3655L356.697 40.8428L355.819 41.32L368.123 63.9763L369.002 63.499ZM356.697 40.8428L355.896 40.2441L347.342 51.6894L348.143 52.2881L348.944 52.8868L357.498 41.4415L356.697 40.8428ZM348.143 52.2881H347.143V63.499H348.143H349.143V52.2881H348.143Z" fill="black"/>
<path d="M65.5 29.716C65 27.216 61 25.716 59.5 24.216C63.3333 23.716 75 22.716 72 24.716C69.6703 26.2691 66.6667 28.0494 66.5 29.716C66.3333 30.5494 65.9 31.716 65.5 29.716Z" fill="black" stroke="black"/>
<rect x="266.819" y="28.8997" width="10" height="13.2179" fill="black"/>
<path d="M13.0272 74.2622V72.2313H25.1286V74.2622H20.2498V87.8677H17.8983V74.2622H13.0272ZM27.8027 87.8677V72.2313H30.1619V79.0264H37.9572V72.2313H40.324V87.8677H37.9572V81.0497H30.1619V87.8677H27.8027ZM43.7597 87.8677V72.2313H53.563V74.2622H46.1189V79.0264H53.0515V81.0497H46.1189V85.8368H53.6546V87.8677H43.7597ZM61.6331 74.2622V72.2313H73.7345V74.2622H68.8558V87.8677H66.5042V74.2622H61.6331ZM78.7679 72.2313V87.8677H76.4087V72.2313H78.7679ZM94.8241 72.2313V87.8677H92.6558L84.7078 76.4H84.5628V87.8677H82.2036V72.2313H84.3872L92.3428 83.7143H92.4878V72.2313H94.8241ZM97.0593 72.2313H99.7391L103.824 79.3394H103.992L108.076 72.2313H110.756L105.084 81.7292V87.8677H102.732V81.7292L97.0593 72.2313ZM114.784 85.7299L114.669 86.5621C114.593 87.1729 114.463 87.8091 114.28 88.4708C114.102 89.1376 113.916 89.7561 113.723 90.3261C113.534 90.8962 113.379 91.3492 113.257 91.6851H111.638C111.704 91.3696 111.796 90.942 111.913 90.4025C112.03 89.868 112.145 89.27 112.257 88.6083C112.369 87.9466 112.453 87.2722 112.509 86.585L112.585 85.7299H114.784ZM123.629 87.8677V72.2313H129.202C130.414 72.2313 131.419 72.44 132.218 72.8574C133.022 73.2748 133.623 73.8525 134.02 74.5905C134.417 75.3235 134.616 76.1709 134.616 77.1329C134.616 78.0899 134.415 78.9322 134.012 79.6601C133.615 80.3829 133.015 80.9453 132.211 81.3474C131.411 81.7495 130.406 81.9506 129.195 81.9506H124.973V79.9197H128.981C129.744 79.9197 130.365 79.8103 130.844 79.5914C131.327 79.3725 131.681 79.0544 131.905 78.637C132.129 78.2197 132.241 77.7183 132.241 77.1329C132.241 76.5425 132.127 76.031 131.898 75.5983C131.674 75.1657 131.32 74.8348 130.836 74.6058C130.358 74.3716 129.729 74.2546 128.95 74.2546H125.988V87.8677H123.629ZM131.348 80.813L135.211 87.8677H132.524L128.737 80.813H131.348ZM137.486 87.8677V72.2313H147.29V74.2622H139.845V79.0264H146.778V81.0497H139.845V85.8368H147.381V87.8677H137.486ZM150.441 87.8677V72.2313H152.8V85.8368H159.885V87.8677H150.441ZM164.936 72.2313V87.8677H162.577V72.2313H164.936ZM169.692 87.8677H167.188L172.815 72.2313H175.541L181.168 87.8677H178.663L174.243 75.0715H174.121L169.692 87.8677ZM170.112 81.7445H178.236V83.7295H170.112V81.7445ZM183.426 87.8677V72.2313H189.152C190.262 72.2313 191.18 72.4146 191.908 72.781C192.636 73.1424 193.181 73.6336 193.542 74.2546C193.903 74.8705 194.084 75.5652 194.084 76.3389C194.084 76.9904 193.965 77.5401 193.725 77.9881C193.486 78.4309 193.165 78.7872 192.763 79.057C192.366 79.3216 191.929 79.515 191.45 79.6372V79.7899C191.969 79.8154 192.476 79.9833 192.969 80.2938C193.468 80.5992 193.881 81.0344 194.206 81.5994C194.532 82.1644 194.695 82.8515 194.695 83.6608C194.695 84.4599 194.507 85.1776 194.13 85.8139C193.758 86.445 193.183 86.9464 192.404 87.318C191.626 87.6844 190.631 87.8677 189.419 87.8677H183.426ZM185.785 85.8444H189.19C190.32 85.8444 191.129 85.6255 191.618 85.1878C192.107 84.7501 192.351 84.2029 192.351 83.5463C192.351 83.0526 192.226 82.5996 191.977 82.1873C191.727 81.775 191.371 81.4467 190.908 81.2024C190.45 80.9581 189.905 80.8359 189.274 80.8359H185.785V85.8444ZM185.785 78.9959H188.946C189.475 78.9959 189.951 78.8941 190.374 78.6905C190.801 78.4869 191.14 78.2018 191.389 77.8354C191.643 77.4638 191.771 77.0261 191.771 76.5221C191.771 75.8757 191.544 75.3336 191.091 74.8959C190.638 74.4582 189.943 74.2393 189.007 74.2393H185.785V78.9959ZM197.493 87.8677V72.2313H199.852V85.8368H206.938V87.8677H197.493ZM209.629 87.8677V72.2313H219.432V74.2622H211.988V79.0264H218.921V81.0497H211.988V85.8368H219.524V87.8677H209.629ZM228.273 87.8677V72.2313H230.633V79.0264H238.428V72.2313H240.795V87.8677H238.428V81.0497H230.633V87.8677H228.273ZM245.551 87.8677H243.047L248.674 72.2313H251.4L257.027 87.8677H254.522L250.102 75.0715H249.98L245.551 87.8677ZM245.971 81.7445H254.095V83.7295H245.971V81.7445ZM259.285 87.8677V72.2313H265.011C266.12 72.2313 267.039 72.4146 267.767 72.781C268.495 73.1424 269.04 73.6336 269.401 74.2546C269.762 74.8705 269.943 75.5652 269.943 76.3389C269.943 76.9904 269.823 77.5401 269.584 77.9881C269.345 78.4309 269.024 78.7872 268.622 79.057C268.225 79.3216 267.787 79.515 267.309 79.6372V79.7899C267.828 79.8154 268.335 79.9833 268.828 80.2938C269.327 80.5992 269.739 81.0344 270.065 81.5994C270.391 82.1644 270.554 82.8515 270.554 83.6608C270.554 84.4599 270.365 85.1776 269.989 85.8139C269.617 86.445 269.042 86.9464 268.263 87.318C267.485 87.6844 266.489 87.8677 265.278 87.8677H259.285ZM261.644 85.8444H265.049C266.179 85.8444 266.988 85.6255 267.477 85.1878C267.966 84.7501 268.21 84.2029 268.21 83.5463C268.21 83.0526 268.085 82.5996 267.836 82.1873C267.586 81.775 267.23 81.4467 266.767 81.2024C266.309 80.9581 265.764 80.8359 265.133 80.8359H261.644V85.8444ZM261.644 78.9959H264.805C265.334 78.9959 265.81 78.8941 266.232 78.6905C266.66 78.4869 266.998 78.2018 267.248 77.8354C267.502 77.4638 267.63 77.0261 267.63 76.5221C267.63 75.8757 267.403 75.3336 266.95 74.8959C266.497 74.4582 265.802 74.2393 264.866 74.2393H261.644V78.9959ZM278.271 74.2622V72.2313H290.372V74.2622H285.493V87.8677H283.142V74.2622H278.271ZM293.046 87.8677V72.2313H298.62C299.831 72.2313 300.837 72.44 301.636 72.8574C302.44 73.2748 303.04 73.8525 303.438 74.5905C303.835 75.3235 304.033 76.1709 304.033 77.1329C304.033 78.0899 303.832 78.9322 303.43 79.6601C303.033 80.3829 302.432 80.9453 301.628 81.3474C300.829 81.7495 299.824 81.9506 298.612 81.9506H294.39V79.9197H298.398C299.162 79.9197 299.783 79.8103 300.261 79.5914C300.745 79.3725 301.099 79.0544 301.323 78.637C301.547 78.2197 301.659 77.7183 301.659 77.1329C301.659 76.5425 301.544 76.031 301.315 75.5983C301.091 75.1657 300.737 74.8348 300.254 74.6058C299.775 74.3716 299.147 74.2546 298.368 74.2546H295.406V87.8677H293.046ZM300.765 80.813L304.629 87.8677H301.941L298.154 80.813H300.765ZM308.225 87.8677H305.72L311.347 72.2313H314.073L319.7 87.8677H317.196L312.775 75.0715H312.653L308.225 87.8677ZM308.645 81.7445H316.768V83.7295H308.645V81.7445ZM334.21 77.3162H331.828C331.736 76.8072 331.566 76.3593 331.317 75.9724C331.067 75.5856 330.762 75.2573 330.4 74.9875C330.039 74.7178 329.634 74.5142 329.186 74.3767C328.744 74.2393 328.273 74.1706 327.774 74.1706C326.873 74.1706 326.066 74.3971 325.354 74.8501C324.646 75.3031 324.086 75.9673 323.674 76.8428C323.267 77.7183 323.063 78.7872 323.063 80.0495C323.063 81.322 323.267 82.396 323.674 83.2714C324.086 84.1469 324.649 84.8086 325.361 85.2565C326.074 85.7044 326.876 85.9284 327.766 85.9284C328.26 85.9284 328.728 85.8622 329.171 85.7299C329.619 85.5925 330.024 85.3914 330.385 85.1267C330.746 84.8621 331.052 84.5388 331.301 84.1571C331.556 83.7703 331.731 83.3274 331.828 82.8286L334.21 82.8362C334.083 83.6048 333.836 84.3123 333.47 84.9588C333.108 85.6001 332.642 86.1549 332.072 86.6232C331.507 87.0864 330.861 87.4452 330.133 87.6997C329.405 87.9542 328.611 88.0815 327.751 88.0815C326.397 88.0815 325.191 87.7608 324.132 87.1195C323.073 86.473 322.239 85.5492 321.628 84.348C321.022 83.1467 320.719 81.7139 320.719 80.0495C320.719 78.38 321.025 76.9472 321.635 75.751C322.246 74.5498 323.081 73.6285 324.14 72.9872C325.198 72.3407 326.402 72.0175 327.751 72.0175C328.581 72.0175 329.354 72.1371 330.072 72.3764C330.795 72.6105 331.444 72.9566 332.019 73.4147C332.594 73.8677 333.07 74.4225 333.447 75.0791C333.823 75.7307 334.078 76.4763 334.21 77.3162ZM337.033 87.8677V72.2313H339.392V79.6983H339.583L346.142 72.2313H349.112L342.805 79.2707L349.135 87.8677H346.294L341.24 80.8817L339.392 83.0042V87.8677H337.033ZM351.311 87.8677V72.2313H361.114V74.2622H353.67V79.0264H360.602V81.0497H353.67V85.8368H361.205V87.8677H351.311ZM364.265 87.8677V72.2313H369.839C371.05 72.2313 372.055 72.44 372.854 72.8574C373.659 73.2748 374.259 73.8525 374.656 74.5905C375.053 75.3235 375.252 76.1709 375.252 77.1329C375.252 78.0899 375.051 78.9322 374.649 79.6601C374.252 80.3829 373.651 80.9453 372.847 81.3474C372.048 81.7495 371.042 81.9506 369.831 81.9506H365.609V79.9197H369.617C370.381 79.9197 371.002 79.8103 371.48 79.5914C371.964 79.3725 372.317 79.0544 372.541 78.637C372.765 78.2197 372.877 77.7183 372.877 77.1329C372.877 76.5425 372.763 76.031 372.534 75.5983C372.31 75.1657 371.956 74.8348 371.472 74.6058C370.994 74.3716 370.365 74.2546 369.587 74.2546H366.624V87.8677H364.265ZM371.984 80.813L375.847 87.8677H373.16L369.373 80.813H371.984Z" fill="black"/>
<path d="M70.5 63.7161H61V56.7161L66 52.7161L70.5 56.7161V63.7161Z" fill="black"/>
<path d="M61 63.7161H70.5V56.7161L66 52.7161L61 56.7161V64.2161" stroke="black"/>
<rect x="64.4443" y="21.7161" width="3.11121" height="33" fill="black"/>
<circle cx="66" cy="13.7161" r="13" fill="black"/>
</g>
<defs>
<clipPath id="clip0_142_70">
<rect width="384" height="93" fill="white"/>
</clipPath>
</defs>
</svg>
